<svg width="30" height="30" viewBox="0 0 30 30" fill="none" xmlns="http://www.w3.org/2000/svg">
<g clip-path="url(#clip0_7328_28723)">
<path d="M9.00393 20.7866C5.74947 17.5322 5.74947 12.256 9.00393 9.00154C12.2584 5.74708 17.5346 5.74708 20.789 9.00154C24.0435 12.256 24.0435 17.5322 20.789 20.7866C17.5346 24.0411 12.2584 24.0411 9.00393 20.7866ZM10.1824 19.6081C11.4327 20.8584 13.1284 21.5608 14.8965 21.5608C16.6646 21.5608 18.3603 20.8584 19.6105 19.6081C20.8608 18.3579 21.5632 16.6622 21.5632 14.8941C21.5632 13.126 20.8608 11.4303 19.6105 10.18C18.3603 8.9298 16.6646 8.22742 14.8965 8.22742C13.1284 8.22742 11.4327 8.9298 10.1824 10.18C8.9322 11.4303 8.22982 13.126 8.22982 14.8941C8.22982 16.6622 8.9322 18.3579 10.1824 19.6081Z" fill="white"/>
<path fill-rule="evenodd" clip-rule="evenodd" d="M15.4949 9.9929C15.9345 10.1742 16.3091 10.4142 16.6118 10.7168C16.8416 10.9467 17.0035 11.2037 17.0656 11.4894C17.1285 11.7788 17.0823 12.0685 16.9501 12.3476C16.8209 12.6276 16.5775 12.9332 16.2493 13.2614L15.9282 13.5825L18.3761 16.0305L17.4301 16.9765L14.9821 14.5286L13.2489 16.2618C13.1158 16.3949 13.0387 16.4923 13.0011 16.557C12.98 16.5934 12.9758 16.6201 12.979 16.6462C12.9865 16.6712 13.0168 16.734 13.1177 16.835C13.2593 16.9766 13.4394 17.0841 13.6665 17.1536C13.8919 17.2197 14.1386 17.2357 14.4109 17.1957C14.6732 17.1554 14.8596 17.0611 14.9925 16.9282C15.0667 16.8539 15.0648 16.8159 15.064 16.8058C15.0625 16.7843 15.0462 16.7195 14.9372 16.6105C14.8171 16.4904 14.7069 16.4031 14.6073 16.3433L14.3126 16.1665L15.0921 15.1095L15.3355 15.2545C15.5845 15.403 15.8089 15.5764 16.0076 15.775C16.3159 16.0833 16.5066 16.4344 16.5134 16.8252C16.5225 17.2161 16.3452 17.5642 16.0455 17.8639C15.7539 18.1555 15.3765 18.3507 14.93 18.4606C14.4757 18.5752 13.9943 18.5714 13.4913 18.4588C12.9707 18.3423 12.5184 18.0933 12.1406 17.7154C11.89 17.4648 11.7101 17.1934 11.6343 16.8991C11.5629 16.6223 11.5682 16.349 11.6648 16.0903L11.6671 16.0842C11.7667 15.8338 11.9705 15.5721 12.2407 15.302L13.9981 13.5446L13.311 12.8575L14.2571 11.9115L14.9441 12.5985L15.2376 12.3051C15.4403 12.1024 15.551 11.961 15.5974 11.8744C15.6411 11.7929 15.6436 11.7407 15.6377 11.7068L15.6366 11.7009L15.6358 11.695C15.6329 11.6739 15.612 11.6091 15.5035 11.5006C15.3989 11.396 15.2381 11.2916 15.005 11.1958L14.7177 11.0778L15.2037 9.87282L15.4949 9.9929Z" fill="white"/>
</g>
<defs>
<clipPath id="clip0_7328_28723">
<rect width="20" height="20" fill="white" transform="translate(14.8965 0.751953) rotate(45)"/>
</clipPath>
</defs>
</svg>
